<svg xmlns="http://www.w3.org/2000/svg" width="20.75" height="20.75" viewBox="0 0 20.75 20.75">
  <g id="Group_13739" data-name="Group 13739" transform="translate(-140.625 -2.625)">
    <g id="Group_13738" data-name="Group 13738">
      <path id="Path_22015" data-name="Path 22015" d="M144.708,2.625a4.083,4.083,0,1,0,4.083,4.083A4.088,4.088,0,0,0,144.708,2.625Zm0,6.667a2.583,2.583,0,1,1,2.583-2.584A2.586,2.586,0,0,1,144.708,9.292Z" fill="#f00e4b"/>
      <path id="Path_22016" data-name="Path 22016" d="M158.042,10.042a3.333,3.333,0,1,0-3.334-3.334A3.334,3.334,0,0,0,158.042,10.042Z" fill="#f00e4b"/>
      <circle id="Ellipse_7708" data-name="Ellipse 7708" cx="3.333" cy="3.333" r="3.333" transform="translate(141.375 16.708)" fill="#f00e4b"/>
      <path id="Path_22017" data-name="Path 22017" d="M158.042,16.708a3.333,3.333,0,1,0,3.333,3.334A3.334,3.334,0,0,0,158.042,16.708Z" fill="#f00e4b"/>
    </g>
  </g>
</svg>
