<svg xmlns="http://www.w3.org/2000/svg" width="22.574" height="21.5" viewBox="0 0 22.574 21.5">
  <g id="Group_13741" data-name="Group 13741" transform="translate(44.287 -2.25)">
    <g id="Group_13740" data-name="Group 13740">
      <path id="Path_22018" data-name="Path 22018" d="M-22.865,9.336l-8.3-6.455a2.977,2.977,0,0,0-3.665,0l-8.3,6.455a3,3,0,0,0-1.13,2.728l1.136,9.071a2.989,2.989,0,0,0,2.963,2.616h14.33a2.988,2.988,0,0,0,2.963-2.615l1.136-9.072A3,3,0,0,0-22.865,9.336Zm-1.5,11.614a1.488,1.488,0,0,1-1.475,1.3H-32.25V17.244a.75.75,0,0,0-.75-.75.75.75,0,0,0-.75.75V22.25h-6.415a1.488,1.488,0,0,1-1.475-1.3l-1.135-9.072a1.492,1.492,0,0,1,.561-1.357l8.3-6.456A1.483,1.483,0,0,1-33,3.75a1.483,1.483,0,0,1,.912.314l8.3,6.455a1.5,1.5,0,0,1,.563,1.358Z" fill="#f00e4b"/>
      <circle id="Ellipse_7709" data-name="Ellipse 7709" cx="1.75" cy="1.75" r="1.75" transform="translate(-34.75 10.4)" fill="#f00e4b"/>
    </g>
  </g>
</svg>
