<svg xmlns="http://www.w3.org/2000/svg" width="21.4" height="21.4" viewBox="0 0 21.4 21.4"><g transform="translate(-841.732 -320.787)"><path d="M852.432,320.787a10.7,10.7,0,1,0,10.7,10.7A10.712,10.712,0,0,0,852.432,320.787Zm0,20a9.3,9.3,0,1,1,9.3-9.3A9.311,9.311,0,0,1,852.432,340.787Z"/><path d="M856.205,332.852a1.262,1.262,0,0,0-.877-.424,1.314,1.314,0,0,0-.971.369l-.619.62-3.2-3.2.644-.645a1.258,1.258,0,0,0,.369-.9,1.282,1.282,0,0,0-.4-.92c-.25-.237-.468-.469-.665-.678-.58-.615-1.038-1.1-1.676-1.11a1.45,1.45,0,0,0-1.035.481c-1.663,1.663-.878,5.261,1.715,7.855a9.469,9.469,0,0,0,4.279,2.523,5.869,5.869,0,0,0,1.433.189,3.183,3.183,0,0,0,2.308-.829c.984-.984.2-1.782-.566-2.553C856.729,333.408,856.477,333.153,856.205,332.852Zm.459,2.481a2.8,2.8,0,0,1-2.6.325,8.4,8.4,0,0,1-3.723-2.207c-2.252-2.255-2.762-5.112-1.715-6.159a.565.565,0,0,1,.168-.13c.145.016.536.43.822.733.211.224.445.472.715.729a.074.074,0,0,1,0,.1l-.757.757a1.039,1.039,0,0,0,0,1.468l3.431,3.431a1.042,1.042,0,0,0,1.466,0l.736-.736a.081.081,0,0,1,.1.008c.288.32.552.588.781.819a6.942,6.942,0,0,1,.675.733A.456.456,0,0,1,856.664,335.333Z"/></g></svg>