<svg xmlns="http://www.w3.org/2000/svg" width="19.3" height="17.3" viewBox="0 0 19.3 17.3"><g transform="translate(-842.787 -229.17)"><path d="M858.5,229.17H846.377a3.594,3.594,0,0,0-3.59,3.59v10.121a3.593,3.593,0,0,0,3.59,3.589H858.5a3.593,3.593,0,0,0,3.589-3.589V232.76A3.594,3.594,0,0,0,858.5,229.17Zm2.289,13.711a2.292,2.292,0,0,1-2.289,2.289H846.377a2.292,2.292,0,0,1-2.29-2.289V232.76a2.293,2.293,0,0,1,2.29-2.29H858.5a2.293,2.293,0,0,1,2.289,2.29Z"/><circle cx="0.75" cy="0.75" r="0.75" transform="translate(845.91 232.171)"/><circle cx="0.75" cy="0.75" r="0.75" transform="translate(848.112 232.171)"/><circle cx="0.75" cy="0.75" r="0.75" transform="translate(850.314 232.171)"/></g></svg>