<svg xmlns="http://www.w3.org/2000/svg" width="14.3" height="19.3" viewBox="0 0 14.3 19.3"><g transform="translate(-845.537 -278.466)"><path d="M857.445,278.466h-9.516a2.4,2.4,0,0,0-2.392,2.392v14.516a2.4,2.4,0,0,0,2.392,2.392h9.516a2.4,2.4,0,0,0,2.392-2.392V280.858A2.4,2.4,0,0,0,857.445,278.466Zm1.093,16.908a1.094,1.094,0,0,1-1.093,1.092h-9.516a1.093,1.093,0,0,1-1.092-1.092V280.858a1.093,1.093,0,0,1,1.092-1.092h9.516a1.094,1.094,0,0,1,1.093,1.092Z"/><circle cx="1" cy="1" r="1" transform="translate(851.687 292.56)"/></g></svg>