<svg xmlns="http://www.w3.org/2000/svg" xmlns:xlink="http://www.w3.org/1999/xlink" width="217" height="101" viewBox="0 0 217 101"><defs><clipPath id="a"><rect width="217" height="101" rx="8" transform="translate(1403.745 426.943)" fill="none"/></clipPath></defs><g transform="translate(-1403.745 -426.943)"><rect width="217" height="101" rx="8" transform="translate(1403.745 426.943)" fill="#f4f0f1"/><g clip-path="url(#a)"><path d="M1482.906,442.715a50.005,50.005,0,0,0-46.982-26.619h0a50.008,50.008,0,0,0-20.856,94.03,5.506,5.506,0,0,0,2.236.542,4.54,4.54,0,0,0,3.952-2.315l4.88-10.407-.031-.077-15.315-35.423a9.669,9.669,0,0,1-.851-3.688,8.156,8.156,0,0,1,2.1-5.592,7.613,7.613,0,0,1,5.292-2.378,5.531,5.531,0,0,1,5.019,2.241,21.034,21.034,0,0,1,2.509,5.111l8.475,22.626.048.135,13.467-33.809-6.707-.069,20.411-15.087,4.66,24.973-5.142-4.592-26.659,63.459a39.483,39.483,0,0,0,.663,32.52s-3.218-17.116,20.062-33.211c14.1-10.653,29.287-17.642,33.777-40.941A49.726,49.726,0,0,0,1482.906,442.715Z" fill="#292a2b" opacity="0.04" style="isolation:isolate"/></g><path d="M1575.286,443.947a2.28,2.28,0,0,1-.269.15,3.167,3.167,0,0,1-.364.146,3.381,3.381,0,0,1-.464.114,3.5,3.5,0,0,1-.587.046,2.9,2.9,0,0,1-.955-.155,2.255,2.255,0,0,1-.782-.459,2.184,2.184,0,0,1-.532-.751,2.535,2.535,0,0,1-.2-1.028,2.673,2.673,0,0,1,.191-1.038,2.158,2.158,0,0,1,.528-.765,2.252,2.252,0,0,1,.8-.469,2.987,2.987,0,0,1,.987-.159,3.406,3.406,0,0,1,.76.073,1.964,1.964,0,0,1,.51.182.761.761,0,0,1,.282.246.5.5,0,0,1,.087.273.533.533,0,0,1-.123.337,1.334,1.334,0,0,1-.232.237,1.753,1.753,0,0,0-.474-.3,1.836,1.836,0,0,0-.764-.141,1.774,1.774,0,0,0-.578.091,1.231,1.231,0,0,0-.464.278,1.322,1.322,0,0,0-.309.464,2,2,0,0,0,0,1.342,1.236,1.236,0,0,0,.328.464,1.347,1.347,0,0,0,.482.268,1.942,1.942,0,0,0,.591.087,1.818,1.818,0,0,0,.733-.123,3.3,3.3,0,0,0,.378-.186Z" fill="#1e1e1e"/><path d="M1576.608,437.785a.622.622,0,1,1-.446.182A.6.6,0,0,1,1576.608,437.785Zm-.52,2.53a.438.438,0,0,1,.146-.368.648.648,0,0,1,.409-.114,1.05,1.05,0,0,1,.3.041c.091.027.152.047.182.059V444.4h-1.038Z" fill="#1e1e1e"/><path d="M1577.933,438.895a.438.438,0,0,1,.146-.369.635.635,0,0,1,.4-.114,1.091,1.091,0,0,1,.3.041c.094.027.156.047.186.059v1.2h1.319a.586.586,0,0,1,.423.123.486.486,0,0,1,.123.359.88.88,0,0,1-.046.287q-.032.094-.072.186h-1.748v2.03a1,1,0,0,0,.065.387.6.6,0,0,0,.178.241.668.668,0,0,0,.264.127,1.382,1.382,0,0,0,.314.036,1.447,1.447,0,0,0,.492-.082,1.382,1.382,0,0,0,.327-.155l.419.692c-.049.036-.116.082-.2.137a1.851,1.851,0,0,1-.324.155,2.891,2.891,0,0,1-.427.123,2.6,2.6,0,0,1-.52.05,1.631,1.631,0,0,1-1.211-.414,1.48,1.48,0,0,1-.409-1.088Z" fill="#1e1e1e"/><path d="M1585.9,439.746a1.054,1.054,0,0,0-.3-.041.615.615,0,0,0-.4.118.44.44,0,0,0-.146.364v1.948a1.3,1.3,0,0,1-.318.951,1.171,1.171,0,0,1-.874.323,1.141,1.141,0,0,1-.888-.318,1.232,1.232,0,0,1-.286-.855v-2.43c-.031-.012-.092-.033-.186-.059a1.054,1.054,0,0,0-.3-.041.615.615,0,0,0-.4.118.44.44,0,0,0-.145.364v2.257a1.957,1.957,0,0,0,.151.792,1.6,1.6,0,0,0,.414.578,1.81,1.81,0,0,0,.637.355,2.585,2.585,0,0,0,.81.123,2.218,2.218,0,0,0,.851-.16,1.235,1.235,0,0,0,.569-.423,2.554,2.554,0,0,1-.1.787,1.244,1.244,0,0,1-.3.5,1.085,1.085,0,0,1-.478.269,2.4,2.4,0,0,1-.637.077,4.888,4.888,0,0,1-.514-.027c-.161-.018-.3-.041-.432-.068a3.043,3.043,0,0,1-.328-.087c-.092-.031-.158-.055-.2-.073l-.264.774c.043.018.116.044.219.077a3.506,3.506,0,0,0,.4.1c.165.032.344.068.551.1a5.359,5.359,0,0,0,.682.041,3.5,3.5,0,0,0,.992-.132,1.859,1.859,0,0,0,1.256-1.165,3.093,3.093,0,0,0,.173-1.1V439.8Z" fill="#1e1e1e"/><path d="M1586.888,441.462a1.767,1.767,0,0,1,.155-.765,1.549,1.549,0,0,1,.423-.546,1.885,1.885,0,0,1,.633-.332,2.626,2.626,0,0,1,.792-.114,2.348,2.348,0,0,1,1.011.209.711.711,0,0,0,1.411,0,2.266,2.266,0,0,1,.992-.209,2.694,2.694,0,0,1,.783.109,1.765,1.765,0,0,1,.628.328,1.564,1.564,0,0,1,.418.546,1.765,1.765,0,0,1,.155.765V444.4h-1.037v-2.594a1.2,1.2,0,0,0-.282-.9,1.064,1.064,0,0,0-.765-.268,1.082,1.082,0,0,0-.778.3,1.3,1.3,0,0,0-.314.975V444.4h-1.038v-2.481a1.3,1.3,0,0,0-.314-.975,1.062,1.062,0,0,0-1.835.874V444.4h-1.038Z" fill="#1e1e1e"/><path d="M1599.435,444.256c-.06.012-.156.026-.286.041s-.284.031-.46.045-.373.029-.592.041-.446.018-.683.018a4.535,4.535,0,0,1-1.161-.123,1.992,1.992,0,0,1-.71-.328,1.06,1.06,0,0,1-.355-.473,1.623,1.623,0,0,1-.1-.551,1.741,1.741,0,0,1,.114-.655,1.077,1.077,0,0,1,.373-.473,1.812,1.812,0,0,1,.678-.287,4.657,4.657,0,0,1,1.02-.1c.23,0,.448.008.655.023s.361.029.464.041a1.181,1.181,0,0,0-.1-.528.812.812,0,0,0-.287-.328,1.164,1.164,0,0,0-.437-.163,3.133,3.133,0,0,0-.564-.045,2.4,2.4,0,0,0-.833.118,1.65,1.65,0,0,0-.414.2,1.172,1.172,0,0,1-.15-.173.5.5,0,0,1-.1-.309.511.511,0,0,1,.068-.25.6.6,0,0,1,.241-.218,1.556,1.556,0,0,1,.464-.15,4.047,4.047,0,0,1,.737-.055,4.237,4.237,0,0,1,.979.1,2.136,2.136,0,0,1,.76.332,1.524,1.524,0,0,1,.5.6,2.078,2.078,0,0,1,.178.9Zm-1.027-2.02c-.061-.012-.175-.031-.342-.055a5.541,5.541,0,0,0-.751-.037,1.673,1.673,0,0,0-.9.186.653.653,0,0,0-.283.587.755.755,0,0,0,.06.3.53.53,0,0,0,.2.232,1.128,1.128,0,0,0,.4.146,3.264,3.264,0,0,0,.624.05,5.667,5.667,0,0,0,.664-.033c.163-.022.273-.038.328-.05Z" fill="#1e1e1e"/><path d="M1606.475,437.785a.622.622,0,1,1-.446.182A.6.6,0,0,1,1606.475,437.785Zm-.52,2.53a.441.441,0,0,1,.146-.368.648.648,0,0,1,.409-.114,1.05,1.05,0,0,1,.3.041c.091.027.152.047.182.059V444.4h-1.038Z" fill="#1e1e1e"/><path d="M1612.147,444.256c-.061.012-.156.025-.287.041s-.284.03-.46.045-.373.029-.592.041-.446.018-.683.018a4.533,4.533,0,0,1-1.16-.123,1.992,1.992,0,0,1-.71-.328,1.058,1.058,0,0,1-.354-.473,1.623,1.623,0,0,1-.1-.551,1.741,1.741,0,0,1,.114-.655,1.083,1.083,0,0,1,.373-.473,1.811,1.811,0,0,1,.678-.287,4.671,4.671,0,0,1,1.02-.1c.23,0,.449.008.655.023s.361.029.464.041a1.168,1.168,0,0,0-.1-.528.812.812,0,0,0-.287-.328,1.164,1.164,0,0,0-.437-.163,3.133,3.133,0,0,0-.564-.045,2.4,2.4,0,0,0-.833.118,1.666,1.666,0,0,0-.414.2,1.242,1.242,0,0,1-.15-.173.506.506,0,0,1-.1-.309.52.52,0,0,1,.068-.25.6.6,0,0,1,.241-.218,1.556,1.556,0,0,1,.464-.15,4.053,4.053,0,0,1,.737-.055,4.238,4.238,0,0,1,.979.1,2.136,2.136,0,0,1,.76.332,1.524,1.524,0,0,1,.5.6,2.077,2.077,0,0,1,.177.9Zm-1.029-2.02c-.061-.012-.174-.031-.341-.055a5.54,5.54,0,0,0-.751-.037,1.675,1.675,0,0,0-.9.186.653.653,0,0,0-.282.587.756.756,0,0,0,.059.3.53.53,0,0,0,.2.232,1.147,1.147,0,0,0,.4.146,3.252,3.252,0,0,0,.623.05,5.685,5.685,0,0,0,.665-.033c.163-.022.273-.038.328-.05Z" fill="#1e1e1e"/><path d="M1604.973,441.025a2.24,2.24,0,0,0-.505-.764,2.369,2.369,0,0,0-.76-.5,2.444,2.444,0,0,0-.955-.182,2.907,2.907,0,0,0-1.028.173,2.15,2.15,0,0,0-.792.5,2.3,2.3,0,0,0-.51.819,3.21,3.21,0,0,0-.182,1.124v3.885c.03.012.091.032.181.059a1.055,1.055,0,0,0,.3.041.651.651,0,0,0,.409-.114.436.436,0,0,0,.146-.368v-2a1.814,1.814,0,0,0,.628.491,2.033,2.033,0,0,0,.92.2,2.379,2.379,0,0,0,.924-.178,2.239,2.239,0,0,0,.737-.5,2.28,2.28,0,0,0,.491-.76,2.574,2.574,0,0,0,.177-.969A2.517,2.517,0,0,0,1604.973,441.025Zm-.992,1.548a1.4,1.4,0,0,1-.286.473,1.333,1.333,0,0,1-.446.314,1.4,1.4,0,0,1-.569.114,1.42,1.42,0,0,1-.578-.114,1.289,1.289,0,0,1-.442-.314,1.488,1.488,0,0,1-.287-.473,1.744,1.744,0,0,1,0-1.188,1.318,1.318,0,0,1,.738-.76,1.424,1.424,0,0,1,.569-.109,1.405,1.405,0,0,1,.569.114,1.353,1.353,0,0,1,.446.309,1.34,1.34,0,0,1,.286.464,1.629,1.629,0,0,1,.1.578,1.7,1.7,0,0,1-.1.594Z" fill="#1e1e1e"/><path d="M1568.509,439.594a4.914,4.914,0,0,0-4.618-2.616h0a4.915,4.915,0,0,0-2.05,9.241.544.544,0,0,0,.22.053.448.448,0,0,0,.388-.228l.48-1.023v-.008l-1.505-3.481a.945.945,0,0,1-.084-.362.8.8,0,0,1,.207-.55.747.747,0,0,1,.52-.234.543.543,0,0,1,.493.22,2.082,2.082,0,0,1,.247.5l.833,2.223v.013l1.323-3.323-.659-.007,2.006-1.483.458,2.454-.505-.451-2.62,6.237a3.88,3.88,0,0,0,.065,3.2s-.316-1.682,1.972-3.264c1.385-1.047,2.879-1.734,3.32-4.024A4.887,4.887,0,0,0,1568.509,439.594Z" fill="#f00e4b"/><path d="M1403.745,503.943h217v16a8,8,0,0,1-8,8h-201a8,8,0,0,1-8-8v-16Z" fill="#ff0252"/><g style="isolation:isolate"><path d="M1463.078,516.269v-3.511h1.324v3.457a1.48,1.48,0,1,0,2.944,0v-3.457h1.332v3.511a2.8,2.8,0,0,1-5.6,0Z" fill="#fff"/><path d="M1469.477,518.024l.765-.909a3.057,3.057,0,0,0,2.035.81c.666,0,1.008-.306,1.008-.694,0-.44-.36-.576-1.305-.792-1.306-.3-2.233-.666-2.233-1.863a2.03,2.03,0,0,1,2.287-1.927,3.576,3.576,0,0,1,2.422.856l-.694.954a2.867,2.867,0,0,0-1.764-.685c-.567,0-.91.3-.91.667,0,.451.37.594,1.324.81,1.332.3,2.214.693,2.214,1.837,0,1.18-.891,1.963-2.4,1.963A3.973,3.973,0,0,1,1469.477,518.024Z" fill="#fff"/><path d="M1476.912,513.955v1.233h3.1v1.2h-3.1v1.359h3.429v1.2h-4.762v-6.184h4.762v1.2Z" fill="#fff"/><path d="M1485.066,518.942l-1.413-2.007h-.982v2.007h-1.323v-6.184h2.782a2.144,2.144,0,0,1,2.331,2.088,2.013,2.013,0,0,1-1.4,1.936l1.522,2.16Zm-2.4-3.222h1.315c.657,0,1.107-.343,1.107-.874s-.45-.873-1.107-.873h-1.315Z" fill="#fff"/><path d="M1494.327,517.745v1.2h-4.411v-6.184h1.332v4.987Z" fill="#fff"/><path d="M1494.938,515.846a3.287,3.287,0,1,1,3.286,3.205A3.287,3.287,0,0,1,1494.938,515.846Zm5.212,0a1.923,1.923,0,1,0-1.926,2A1.99,1.99,0,0,0,1500.15,515.846Z" fill="#fff"/><path d="M1504.334,516.71l-2.422-3.952h1.549l1.539,2.71,1.6-2.71h1.485l-2.412,3.952v2.232h-1.342Z" fill="#fff"/><path d="M1512.723,517.97h-2.755l-.4.972h-1.485l2.52-6.184h1.486l2.521,6.184h-1.495Zm-.459-1.125-.919-2.26-.918,2.26Z" fill="#fff"/><path d="M1519.707,517.745v1.2H1515.3v-6.184h1.332v4.987Z" fill="#fff"/><path d="M1520.578,512.758h1.332v6.184h-1.332Z" fill="#fff"/><path d="M1524.746,513.955h-1.927v-1.2h5.186v1.2h-1.927v4.987h-1.332Z" fill="#fff"/><path d="M1530.739,516.71l-2.421-3.952h1.548l1.54,2.71,1.6-2.71h1.485l-2.413,3.952v2.232h-1.342Z" fill="#fff"/><path d="M1537.408,515.846a3.293,3.293,0,0,1,5.69-2.161l-.963.864a1.931,1.931,0,0,0-1.441-.694,2,2,0,0,0,0,3.989,1.927,1.927,0,0,0,1.441-.694l.963.865a3.346,3.346,0,0,1-2.4,1.036A3.3,3.3,0,0,1,1537.408,515.846Z" fill="#fff"/><path d="M1548.056,517.97H1545.3l-.4.972h-1.485l2.52-6.184h1.486l2.52,6.184h-1.494Zm-.459-1.125-.918-2.26-.919,2.26Z" fill="#fff"/><path d="M1554.392,518.942l-1.413-2.007H1552v2.007h-1.323v-6.184h2.782a2.143,2.143,0,0,1,2.331,2.088,2.013,2.013,0,0,1-1.4,1.936l1.521,2.16Zm-2.4-3.222h1.315c.657,0,1.107-.343,1.107-.874s-.45-.873-1.107-.873H1552Z" fill="#fff"/><path d="M1556.829,512.758h2.215c2.08,0,3.557,1.278,3.557,3.088s-1.477,3.1-3.557,3.1h-2.215Zm2.386,4.978a1.89,1.89,0,1,0,0-3.772h-1.062v3.772Z" fill="#fff"/></g><g style="isolation:isolate"><path d="M1430.364,470.421h-3.61l-.675,1.522h-.495l2.728-6.185h.495l2.728,6.185h-.495Zm-.189-.431-1.611-3.674-1.621,3.674Z" fill="#1e1e1e"/><path d="M1439.4,468.846a3.221,3.221,0,0,1,3.169-3.2,3.129,3.129,0,0,1,2.224.945l-.315.316a2.648,2.648,0,0,0-1.909-.828,2.768,2.768,0,0,0,0,5.536,2.656,2.656,0,0,0,1.909-.828l.315.315a3.166,3.166,0,0,1-2.224.945A3.229,3.229,0,0,1,1439.4,468.846Z" fill="#1e1e1e"/><path d="M1447.634,468.846a3.164,3.164,0,1,1,3.169,3.2A3.221,3.221,0,0,1,1447.634,468.846Zm5.878,0a2.715,2.715,0,1,0-2.709,2.773A2.776,2.776,0,0,0,1453.512,468.846Z" fill="#1e1e1e"/><path d="M1457.525,465.758h.45l2.422,4.555,2.421-4.555h.451v6.185h-.451v-5.249l-2.421,4.556-2.422-4.556v5.249h-.45Z" fill="#1e1e1e"/><path d="M1467.074,465.758h2.574a1.938,1.938,0,1,1,0,3.844h-2.125v2.341h-.449Zm2.484,3.4c1.071,0,1.819-.594,1.819-1.486s-.748-1.476-1.819-1.476h-2.035v2.962Z" fill="#1e1e1e"/><path d="M1478.946,471.5v.442h-3.952v-6.185h.45V471.5Z" fill="#1e1e1e"/><path d="M1482.662,466.2v2.377h3.43v.432h-3.43V471.5h3.736v.442h-4.186v-6.185h4.186v.441Z" fill="#1e1e1e"/><path d="M1491.752,466.2h-2.206v-.441h4.862v.441H1492.2v5.744h-.45Z" fill="#1e1e1e"/><path d="M1498.222,466.2v2.377h3.43v.432h-3.43V471.5h3.737v.442h-4.187v-6.185h4.187v.441Z" fill="#1e1e1e"/><path d="M1510.03,468.846a3.165,3.165,0,1,1,3.169,3.2A3.221,3.221,0,0,1,1510.03,468.846Zm5.879,0a2.715,2.715,0,1,0-2.71,2.773A2.776,2.776,0,0,0,1515.909,468.846Z" fill="#1e1e1e"/><path d="M1519.922,465.758h.45l4.087,5.464v-5.464h.45v6.185h-.45l-4.087-5.465v5.465h-.45Z" fill="#1e1e1e"/><path d="M1532.567,471.5v.442h-3.952v-6.185h.45V471.5Z" fill="#1e1e1e"/><path d="M1535.834,465.758h.449v6.185h-.449Z" fill="#1e1e1e"/><path d="M1540.09,465.758h.45l4.088,5.464v-5.464h.449v6.185h-.449l-4.088-5.465v5.465h-.45Z" fill="#1e1e1e"/><path d="M1549.333,466.2v2.377h3.431v.432h-3.431V471.5h3.736v.442h-4.185v-6.185h4.185v.441Z" fill="#1e1e1e"/><path d="M1561.087,471.061l.279-.352a3.083,3.083,0,0,0,2.179.9c1,0,1.647-.54,1.647-1.251,0-.685-.549-1.045-1.8-1.342-1.387-.315-2.026-.738-2.026-1.611a1.834,1.834,0,0,1,2.007-1.765,3.126,3.126,0,0,1,2.143.882l-.27.352a2.768,2.768,0,0,0-1.9-.8,1.386,1.386,0,0,0-1.531,1.3c0,.612.558.926,1.8,1.224,1.36.323,2.026.783,2.026,1.729,0,.98-.819,1.719-2.116,1.719A3.45,3.45,0,0,1,1561.087,471.061Z" fill="#1e1e1e"/><path d="M1570.987,466.2h-2.205v-.441h4.862v.441h-2.206v5.744h-.451Z" fill="#1e1e1e"/><path d="M1576.378,468.846a3.164,3.164,0,1,1,3.169,3.2A3.221,3.221,0,0,1,1576.378,468.846Zm5.878,0a2.715,2.715,0,1,0-2.709,2.773A2.776,2.776,0,0,0,1582.256,468.846Z" fill="#1e1e1e"/><path d="M1589.068,469.575l1.658,2.368h-.532l-1.638-2.341h-1.972v2.341h-.45v-6.185h2.575a1.993,1.993,0,0,1,2.187,1.917A1.932,1.932,0,0,1,1589.068,469.575Zm-2.484-.414h2.034c1.071,0,1.82-.594,1.82-1.486s-.749-1.476-1.82-1.476h-2.034Z" fill="#1e1e1e"/><path d="M1594.62,466.2v2.377h3.431v.432h-3.431V471.5h3.736v.442h-4.185v-6.185h4.185v.441Z" fill="#1e1e1e"/></g><g style="isolation:isolate"><path d="M1476.128,478.322h.707l.834,2.7.9-2.7h.588l.9,2.7.826-2.7h.708l-1.219,3.621h-.637l-.869-2.69-.875,2.69h-.637Z" fill="#909090"/><path d="M1482.33,478.322h.708l.833,2.7.9-2.7h.587l.9,2.7.827-2.7h.707l-1.219,3.621h-.637l-.868-2.69-.876,2.69h-.637Z" fill="#909090"/><path d="M1488.532,478.322h.707l.834,2.7.9-2.7h.588l.9,2.7.826-2.7h.708l-1.219,3.621h-.637l-.869-2.69-.875,2.69h-.638Z" fill="#909090"/><path d="M1494.349,481.55a.462.462,0,1,1,.469.477A.467.467,0,0,1,1494.349,481.55Z" fill="#909090"/><path d="M1496.393,480.128a1.924,1.924,0,0,1,1.912-1.89,1.883,1.883,0,0,1,1.331.56l-.469.434a1.164,1.164,0,0,0-.869-.392,1.295,1.295,0,0,0,.007,2.584,1.191,1.191,0,0,0,.883-.406l.469.428a1.884,1.884,0,0,1-1.359.581A1.929,1.929,0,0,1,1496.393,480.128Z" fill="#909090"/><path d="M1500.67,477.3a.417.417,0,1,1,.421.42A.421.421,0,0,1,1500.67,477.3Zm.07,1.023h.694v3.621h-.694Z" fill="#909090"/><path d="M1504.731,481.768a1.162,1.162,0,0,1-.721.259.928.928,0,0,1-.952-.987v-2.129h-.547v-.589h.547v-.994h.678v.994h.855v.589h-.855v2.08a.4.4,0,0,0,.372.433.54.54,0,0,0,.371-.132Z" fill="#909090"/><path d="M1505.738,483.049l.155-.532a.932.932,0,0,0,.441.112.507.507,0,0,0,.5-.28l.182-.385-1.555-3.642h.742l1.163,2.857,1.1-2.857h.721l-1.6,3.95a1.23,1.23,0,0,1-1.162.932A1.54,1.54,0,0,1,1505.738,483.049Z" fill="#909090"/><path d="M1515.66,479.638v2.3h-.68v-2.2a.806.806,0,0,0-.77-.9.824.824,0,0,0-.882.84v2.263h-.68v-2.2a.807.807,0,0,0-.77-.9.824.824,0,0,0-.883.84v2.263h-.693v-3.621h.693v.505a1.117,1.117,0,0,1,1.024-.589,1.249,1.249,0,0,1,1.162.728,1.207,1.207,0,0,1,1.176-.728A1.3,1.3,0,0,1,1515.66,479.638Z" fill="#909090"/><path d="M1520.034,479.75v2.193h-.68v-.5a1.509,1.509,0,0,1-1.2.581,1.2,1.2,0,0,1-1.337-1.155,1.309,1.309,0,0,1,1.45-1.205,3.488,3.488,0,0,1,1.092.2v-.113a.85.85,0,0,0-.931-.938,2.311,2.311,0,0,0-1.023.3l-.252-.512a3.073,3.073,0,0,1,1.373-.364A1.4,1.4,0,0,1,1520.034,479.75Zm-.68,1.058v-.483a3.357,3.357,0,0,0-.987-.14c-.483,0-.889.273-.889.665s.349.631.8.631A1.066,1.066,0,0,0,1519.354,480.808Z" fill="#909090"/><path d="M1525.06,480.128a1.734,1.734,0,0,1-1.667,1.9,1.472,1.472,0,0,1-1.289-.714v1.835h-.686v-4.826h.686v.623a1.481,1.481,0,0,1,1.289-.707A1.731,1.731,0,0,1,1525.06,480.128Zm-.7,0a1.138,1.138,0,1,0-1.134,1.3A1.168,1.168,0,0,0,1524.359,480.128Z" fill="#909090"/><path d="M1526.171,477.3a.417.417,0,1,1,.421.42A.421.421,0,0,1,1526.171,477.3Zm.07,1.023h.694v3.621h-.694Z" fill="#909090"/><path d="M1531.317,479.75v2.193h-.679v-.5a1.508,1.508,0,0,1-1.2.581,1.2,1.2,0,0,1-1.338-1.155,1.309,1.309,0,0,1,1.45-1.205,3.492,3.492,0,0,1,1.092.2v-.113a.851.851,0,0,0-.931-.938,2.312,2.312,0,0,0-1.023.3l-.252-.512a3.07,3.07,0,0,1,1.373-.364A1.4,1.4,0,0,1,1531.317,479.75Zm-.679,1.058v-.483a3.363,3.363,0,0,0-.988-.14c-.483,0-.889.273-.889.665s.35.631.805.631A1.066,1.066,0,0,0,1530.638,480.808Z" fill="#909090"/><path d="M1532.632,481.55a.463.463,0,1,1,.47.477A.467.467,0,0,1,1532.632,481.55Z" fill="#909090"/><path d="M1534.676,480.128a1.923,1.923,0,0,1,1.912-1.89,1.881,1.881,0,0,1,1.33.56l-.469.434a1.161,1.161,0,0,0-.868-.392,1.295,1.295,0,0,0,.007,2.584,1.188,1.188,0,0,0,.882-.406l.469.428a1.881,1.881,0,0,1-1.358.581A1.928,1.928,0,0,1,1534.676,480.128Z" fill="#909090"/><path d="M1538.757,480.128a1.9,1.9,0,1,1,1.912,1.9A1.923,1.923,0,0,1,1538.757,480.128Zm3.116,0a1.214,1.214,0,1,0-1.2,1.3A1.265,1.265,0,0,0,1541.873,480.128Z" fill="#909090"/><path d="M1549.077,479.638v2.3h-.679v-2.2a.807.807,0,0,0-.77-.9.824.824,0,0,0-.883.84v2.263h-.679v-2.2a.807.807,0,0,0-.77-.9.824.824,0,0,0-.883.84v2.263h-.693v-3.621h.693v.505a1.115,1.115,0,0,1,1.023-.589,1.251,1.251,0,0,1,1.163.728,1.206,1.206,0,0,1,1.175-.728A1.3,1.3,0,0,1,1549.077,479.638Z" fill="#909090"/></g></g></svg>