<svg xmlns="http://www.w3.org/2000/svg" width="272.14" height="300" viewBox="0 0 272.14 300"><g transform="translate(-1798.863 -330.742)"><rect width="272.14" height="300" transform="translate(1798.863 330.742)" fill="#fafafa"/><g transform="translate(1834.863 417.742)"><g transform="translate(0 108.505)" style="isolation:isolate"><g style="isolation:isolate"><path d="M1833.667,460.988h1.464v12.877h-1.464Z" transform="translate(-1833.667 -460.555)" fill="#797979"/><path d="M1850.433,466.476v6.166h-1.407v-5.98c0-1.574-.918-2.68-2.23-2.68a2.458,2.458,0,0,0-2.624,2.494v6.166h-1.406v-5.98c0-1.574-.918-2.68-2.229-2.68a2.458,2.458,0,0,0-2.625,2.494v6.166h-1.407v-9.691h1.407v1.424a3.023,3.023,0,0,1,2.811-1.649,3.291,3.291,0,0,1,3.131,2.061,3.161,3.161,0,0,1,3.128-2.061A3.464,3.464,0,0,1,1850.433,466.476Z" transform="translate(-1831.67 -459.332)" fill="#797979"/><path d="M1854.7,466.736v5.905h-1.407v-1.52a4.049,4.049,0,0,1-3.411,1.745c-2.043,0-3.542-1.182-3.542-3.094,0-1.93,1.724-3.222,3.806-3.222a10.573,10.573,0,0,1,3.147.542v-.356c0-1.31-.523-2.811-2.624-2.811a6.525,6.525,0,0,0-2.83.881l-.562-1.143a7.84,7.84,0,0,1,3.487-.937C1853.406,462.726,1854.7,464.394,1854.7,466.736Zm-1.407,2.869v-1.482a11.072,11.072,0,0,0-2.922-.394c-1.443,0-2.663.825-2.663,1.988,0,1.2,1.049,1.912,2.418,1.912A3.184,3.184,0,0,0,1853.292,469.605Z" transform="translate(-1824.75 -459.332)" fill="#797979"/><path d="M1862.331,462.951v8.658c0,2.494-1.971,4.256-4.762,4.256a6.24,6.24,0,0,1-3.917-1.293l.617-1.106a4.6,4.6,0,0,0,3.113,1.143c2.23,0,3.54-1.106,3.54-3v-1.573a4.035,4.035,0,0,1-3.523,1.893,4.6,4.6,0,0,1,0-9.2,4.035,4.035,0,0,1,3.523,1.893v-1.668Zm-1.409,4.368a3.252,3.252,0,1,0-3.261,3.355A3.169,3.169,0,0,0,1860.922,467.319Z" transform="translate(-1820.105 -459.332)" fill="#797979"/><path d="M1868.113,470.449l.861.918a5.784,5.784,0,0,1-3.9,1.5,4.982,4.982,0,0,1-4.912-5.1,4.874,4.874,0,0,1,4.779-5.043c2.926,0,4.592,2.211,4.592,5.605h-7.928a3.441,3.441,0,0,0,3.45,3.278A4.549,4.549,0,0,0,1868.113,470.449Zm-6.486-3.375h6.523a3.1,3.1,0,0,0-3.15-3.092A3.391,3.391,0,0,0,1861.628,467.074Z" transform="translate(-1815.019 -459.332)" fill="#797979"/><path d="M1870.616,461.652a.929.929,0,1,1,.937.939A.937.937,0,0,1,1870.616,461.652Zm.226,2.7h1.4v9.691h-1.4Z" transform="translate(-1807.666 -460.734)" fill="#797979"/><path d="M1873.168,471.423l.731-1.031a5.611,5.611,0,0,0,3.28,1.216c1.274,0,2.136-.6,2.136-1.516,0-1.049-1.125-1.388-2.437-1.762-2.343-.676-3.242-1.368-3.242-2.757,0-1.762,1.462-2.849,3.392-2.849a6.467,6.467,0,0,1,3.467,1.087l-.673,1.087a5.315,5.315,0,0,0-2.794-.918c-1.087,0-1.986.487-1.986,1.424,0,.843.712,1.106,2.513,1.687,1.554.487,3.167,1.014,3.167,2.85,0,1.78-1.537,2.924-3.544,2.924A6.58,6.58,0,0,1,1873.168,471.423Z" transform="translate(-1805.87 -459.332)" fill="#797979"/><path d="M1890.944,466.476v6.166h-1.406v-5.98a2.449,2.449,0,0,0-2.417-2.68,2.817,2.817,0,0,0-3,2.494v6.166h-1.407v-9.691h1.407v1.555a3.674,3.674,0,0,1,3.186-1.78A3.544,3.544,0,0,1,1890.944,466.476Z" transform="translate(-1799.152 -459.332)" fill="#797979"/><path d="M1889.183,467.786a5.014,5.014,0,1,1,5.023,5.08A5.105,5.105,0,0,1,1889.183,467.786Zm8.548,0a3.544,3.544,0,1,0-3.525,3.823A3.721,3.721,0,0,0,1897.731,467.786Z" transform="translate(-1794.601 -459.332)" fill="#797979"/><path d="M1901.958,473.253a2.942,2.942,0,0,1-1.8.62,2.324,2.324,0,0,1-2.362-2.474v-6.186h-1.518v-1.256h1.518V461.3h1.407v2.661h2.378v1.256H1899.2V471.4a1.127,1.127,0,0,0,1.048,1.216,1.4,1.4,0,0,0,1.014-.392Z" transform="translate(-1789.607 -460.339)" fill="#797979"/><path d="M1912.591,466.736v5.905h-1.405v-1.52a4.052,4.052,0,0,1-3.411,1.745c-2.042,0-3.544-1.182-3.544-3.094,0-1.93,1.724-3.222,3.8-3.222a10.578,10.578,0,0,1,3.15.542v-.356c0-1.31-.526-2.811-2.625-2.811a6.5,6.5,0,0,0-2.828.881l-.562-1.143a7.827,7.827,0,0,1,3.485-.937C1911.3,462.726,1912.591,464.394,1912.591,466.736Zm-1.405,2.869v-1.482a11.109,11.109,0,0,0-2.925-.394c-1.443,0-2.661.825-2.661,1.988,0,1.2,1.051,1.912,2.419,1.912A3.187,3.187,0,0,0,1911.186,469.605Z" transform="translate(-1784.012 -459.332)" fill="#797979"/><path d="M1910.556,462.858h1.576l3.224,8.041,3.167-8.041h1.576l-4.07,9.691h-1.348Z" transform="translate(-1779.56 -459.239)" fill="#797979"/><path d="M1925.2,466.736v5.905h-1.408v-1.52a4.047,4.047,0,0,1-3.41,1.745c-2.043,0-3.542-1.182-3.542-3.094,0-1.93,1.724-3.222,3.806-3.222a10.571,10.571,0,0,1,3.146.542v-.356c0-1.31-.523-2.811-2.623-2.811a6.523,6.523,0,0,0-2.83.881l-.562-1.143a7.84,7.84,0,0,1,3.488-.937C1923.9,462.726,1925.2,464.394,1925.2,466.736Zm-1.408,2.869v-1.482a11.071,11.071,0,0,0-2.922-.394c-1.443,0-2.663.825-2.663,1.988,0,1.2,1.05,1.912,2.417,1.912A3.184,3.184,0,0,0,1923.79,469.605Z" transform="translate(-1775.141 -459.332)" fill="#797979"/><path d="M1923.558,461.652a.928.928,0,1,1,.937.939A.937.937,0,0,1,1923.558,461.652Zm.225,2.7h1.407v9.691h-1.407Z" transform="translate(-1770.411 -460.734)" fill="#797979"/><path d="M1926.452,460.855h1.4v13.1h-1.4Z" transform="translate(-1768.375 -460.649)" fill="#797979"/><path d="M1937.3,466.736v5.905h-1.406v-1.52a4.049,4.049,0,0,1-3.411,1.745c-2.043,0-3.542-1.182-3.542-3.094,0-1.93,1.724-3.222,3.8-3.222a10.574,10.574,0,0,1,3.148.542v-.356c0-1.31-.525-2.811-2.624-2.811a6.515,6.515,0,0,0-2.83.881l-.562-1.143a7.835,7.835,0,0,1,3.488-.937C1936,462.726,1937.3,464.394,1937.3,466.736Zm-1.406,2.869v-1.482a11.1,11.1,0,0,0-2.924-.394c-1.441,0-2.661.825-2.661,1.988,0,1.2,1.049,1.912,2.418,1.912A3.185,3.185,0,0,0,1935.89,469.605Z" transform="translate(-1766.626 -459.332)" fill="#797979"/><path d="M1945.268,469.1c0,2.98-1.91,5.08-4.459,5.08a3.925,3.925,0,0,1-3.523-2.044v1.82h-1.409v-13.1h1.409v5.23a3.927,3.927,0,0,1,3.523-2.043C1943.358,464.043,1945.268,466.142,1945.268,469.1Zm-1.48,0c0-2.228-1.348-3.8-3.241-3.8-1.913,0-3.261,1.576-3.261,3.8s1.348,3.823,3.261,3.823C1942.44,472.926,1943.787,471.334,1943.787,469.1Z" transform="translate(-1761.742 -460.649)" fill="#797979"/><path d="M1943.094,460.855h1.4v13.1h-1.4Z" transform="translate(-1756.664 -460.649)" fill="#797979"/><path d="M1953.506,470.449l.862.918a5.793,5.793,0,0,1-3.9,1.5,4.981,4.981,0,0,1-4.91-5.1,4.874,4.874,0,0,1,4.78-5.043c2.924,0,4.592,2.211,4.592,5.605H1947a3.44,3.44,0,0,0,3.448,3.278A4.555,4.555,0,0,0,1953.506,470.449Zm-6.486-3.375h6.523a3.1,3.1,0,0,0-3.149-3.092A3.39,3.39,0,0,0,1947.02,467.074Z" transform="translate(-1754.93 -459.332)" fill="#797979"/></g></g><g transform="translate(38.891)"><path d="M1932.483,408.884h-46.612a14.5,14.5,0,0,0-14.482,14.481v42.417a14.5,14.5,0,0,0,14.482,14.481h46.612a14.5,14.5,0,0,0,14.481-14.481V423.365A14.5,14.5,0,0,0,1932.483,408.884Zm12.777,56.9a12.792,12.792,0,0,1-12.777,12.778h-46.612a12.792,12.792,0,0,1-12.778-12.778V423.365a12.791,12.791,0,0,1,12.778-12.778h46.612a12.791,12.791,0,0,1,12.777,12.778Z" transform="translate(-1846.012 -388.716)" fill="#797979"/><path d="M1935.9,453.338c-.411-1.092-.884-2.165-1.355-3.235l-.586-1.341h0q-4.429-10.337-8.832-20.637a5.949,5.949,0,0,0-3.771-3.6,6.423,6.423,0,0,0-7.319,2.518q-1.259,1.835-2.5,3.683c-1.324,1.958-2.647,3.915-4.016,5.859a4.31,4.31,0,0,1-5.976,1.136,4.373,4.373,0,0,1-1.085-1.065c-.809-1.046-1.632-2.082-2.443-3.092a5.084,5.084,0,0,0-3.6-2,6.452,6.452,0,0,0-6.415,3.184q-5.553,8.689-11.065,17.41a7.046,7.046,0,0,0-1.114,3.365,6.014,6.014,0,0,0,5.532,6.442c.156.01.315.017.462.017.114,0,.223,0,.32-.01q8.006.023,16.018.005l31.568-.005a7.775,7.775,0,0,0,1.946-.147,6.4,6.4,0,0,0,4.433-7.886A6.2,6.2,0,0,0,1935.9,453.338Zm-1.867,4.627a4.643,4.643,0,0,1-2.757,2.2,6.336,6.336,0,0,1-1.51.1l-31.614.005c-5.336.005-10.675.01-16.067,0a3.932,3.932,0,0,1-.6,0,4.311,4.311,0,0,1-3.961-4.625,5.322,5.322,0,0,1,.85-2.564q5.513-8.725,11.084-17.448a4.79,4.79,0,0,1,4.782-2.371,3.423,3.423,0,0,1,2.431,1.354c.819,1.026,1.634,2.051,2.421,3.067a6,6,0,0,0,9.827-.119c1.368-1.942,2.7-3.91,4.026-5.876.832-1.227,1.659-2.453,2.5-3.683a4.724,4.724,0,0,1,5.382-1.852,4.274,4.274,0,0,1,2.714,2.612q4.416,10.34,8.847,20.676h0l.595,1.356c.458,1.043.918,2.085,1.325,3.164a4.512,4.512,0,0,1,.15.446A4.662,4.662,0,0,1,1934.037,457.965Z" transform="translate(-1842.902 -377.933)" fill="#797979"/><path d="M1910.1,428.31a7.062,7.062,0,1,0-7.06-7.062A7.07,7.07,0,0,0,1910.1,428.31Zm0-12.42a5.358,5.358,0,1,1-5.356,5.358A5.365,5.365,0,0,1,1910.1,415.89Z" transform="translate(-1823.741 -384.985)" fill="#797979"/><path d="M1880.114,482.55a8.756,8.756,0,0,1-7.9-6.328l-13.694-48.647a8.762,8.762,0,0,1,6.029-10.754l52.68-14.829a8.764,8.764,0,0,1,10.756,6.028l1.312,4.66a.853.853,0,0,0,1.641-.463l-1.314-4.66a10.469,10.469,0,0,0-12.853-7.207l-52.687,14.832a10.471,10.471,0,0,0-7.205,12.853l13.7,48.651a10.464,10.464,0,0,0,9.442,7.564l.049,0a.852.852,0,0,0,.05-1.7Z" transform="translate(-1856.494 -394.991)" fill="#797979"/><path d="M1934.741,406.745a.851.851,0,0,0-1.124-.433l-14.231,6.326a.852.852,0,0,0,.691,1.557l14.231-6.326A.852.852,0,0,0,1934.741,406.745Z" transform="translate(-1812.595 -390.577)" fill="#797979"/><path d="M1912.812,411.527a.852.852,0,0,0,.794.542.863.863,0,0,0,.31-.06.852.852,0,0,0,.483-1.1l-5.224-13.319a.853.853,0,0,0-1.588.622Z" transform="translate(-1820.582 -397.046)" fill="#797979"/><path d="M12.57,3.941,1.126.047A.851.851,0,1,0,.577,1.658l11.444,3.9a.852.852,0,1,0,.549-1.613Z" transform="translate(107.108 30.03) rotate(3)" fill="#797979"/><path d="M1922.45,397.746a.848.848,0,0,0-1.119.445l-5.912,13.73a.851.851,0,1,0,1.562.675l5.913-13.732A.849.849,0,0,0,1922.45,397.746Z" transform="translate(-1815.078 -396.603)" fill="#797979"/></g></g></g></svg>