<svg xmlns="http://www.w3.org/2000/svg" width="26" height="20.714" viewBox="0 0 26 20.714">
  <path id="Path_22012" data-name="Path 22012" d="M71.965,12.415A17.091,17.091,0,0,0,71.6,10.6c0-.015-.006-.03-.01-.045l-.031-.106-.005-.024-1.275-4.56a4.379,4.379,0,0,0-3.962-3.221H51.679A4.4,4.4,0,0,0,47.707,5.9l-1.25,4.484c-.005.016-.011.032-.016.049l-.035.125a.506.506,0,0,0-.012.056,16.874,16.874,0,0,0-.359,1.8,2.632,2.632,0,0,0,.506,2.1,2.282,2.282,0,0,0,1.762.768l.154,0,.044,0H49.51c.041,0,.08-.01.121-.012V20.26a3.1,3.1,0,0,0,3.1,3.1H65.271a3.1,3.1,0,0,0,3.1-3.1V15.271c.041,0,.08.012.122.012H69.7a2.277,2.277,0,0,0,1.759-.769A2.629,2.629,0,0,0,71.965,12.415ZM67.1,20.26a1.835,1.835,0,0,1-1.833,1.833H52.729A1.835,1.835,0,0,1,50.9,20.26V14.927a2.538,2.538,0,0,0,.6-.427,2.783,2.783,0,0,0,1.98.783H54.48a2.783,2.783,0,0,0,1.979-.784,2.782,2.782,0,0,0,1.981.784h1.121a2.787,2.787,0,0,0,1.98-.783,2.783,2.783,0,0,0,1.98.783H64.53a2.788,2.788,0,0,0,1.981-.783,2.53,2.53,0,0,0,.593.426ZM70.5,13.7a1.13,1.13,0,0,1-.894.32c-.008,0-.1,0-.1,0H68.491a1.407,1.407,0,0,1-1.279-.687.774.774,0,0,0-.7-.451h0a.775.775,0,0,0-.7.449,1.4,1.4,0,0,1-1.279.689H63.521a1.4,1.4,0,0,1-1.278-.687.806.806,0,0,0-1.4,0,1.4,1.4,0,0,1-1.279.689H58.44a1.4,1.4,0,0,1-1.28-.691.774.774,0,0,0-.7-.447h0a.77.77,0,0,0-.7.448,1.408,1.408,0,0,1-1.28.69H53.471a1.4,1.4,0,0,1-1.28-.691.805.805,0,0,0-1.4,0,1.4,1.4,0,0,1-1.279.689h-.978a.4.4,0,0,0-.048,0l-.15,0a1.077,1.077,0,0,1-.827-.32,1.431,1.431,0,0,1-.221-1.109,15.884,15.884,0,0,1,.341-1.7c0-.012.006-.024.008-.036l.019-.066.007-.023,1.254-4.5a3.13,3.13,0,0,1,2.764-2.36H66.321a3.113,3.113,0,0,1,2.754,2.329l1.254,4.481c0,.018.007.036.012.053l.027.1.005.021a15.664,15.664,0,0,1,.34,1.7h0A1.426,1.426,0,0,1,70.5,13.7Z" transform="translate(-46 -2.643)" fill="#f00e4b"/>
</svg>
