<svg xmlns="http://www.w3.org/2000/svg" width="21.953" height="21" viewBox="0 0 21.953 21">
  <g id="Group_13737" data-name="Group 13737" transform="translate(-232.023 -2.5)">
    <g id="Group_13736" data-name="Group 13736">
      <path id="Path_22013" data-name="Path 22013" d="M243,14.695h0a41.2,41.2,0,0,0-4.576.224c-.112.013-.232.022-.341.036-4.155.525-6.06,1.859-6.06,4.143,0,3.044,3.386,4.4,10.977,4.4h0c7.591,0,10.977-1.358,10.977-4.4S250.591,14.695,243,14.695Zm-9.476,4.4c0-.718,0-2.9,9.476-2.9s9.476,2.185,9.476,2.9,0,2.9-9.476,2.9S233.524,19.815,233.524,19.1Z" fill="#f00e4b"/>
      <path id="Path_22014" data-name="Path 22014" d="M243,12.766a5.133,5.133,0,1,0-5.133-5.133A5.139,5.139,0,0,0,243,12.766ZM243,4a3.633,3.633,0,1,1-3.633,3.633A3.637,3.637,0,0,1,243,4Z" fill="#f00e4b"/>
    </g>
  </g>
</svg>
