<svg xmlns="http://www.w3.org/2000/svg" width="14.295" height="14.276" viewBox="0 0 14.295 14.276">
  <g id="Group_13349" data-name="Group 13349" transform="translate(-219.686 -383.009)">
    <g id="Group_13349-2" data-name="Group 13349" transform="translate(220.477 383.509)">
      <path id="Path_11321" data-name="Path 11321" d="M233.481,389.839a6.394,6.394,0,0,1-9.469,5.546l-3.535,1.124,1.152-3.4a6.281,6.281,0,0,1-.916-3.27,6.384,6.384,0,0,1,12.768,0Z" transform="translate(-220.477 -383.509)" fill="none" stroke="#4a4e56" stroke-miterlimit="10" stroke-width="1" fill-rule="evenodd"/>
    </g>
    <path id="Path_11389" data-name="Path 11389" d="M232.209,393.134c-.04-.065-.144-.1-.3-.182s-.926-.453-1.069-.505-.248-.077-.352.078-.4.505-.5.606-.181.117-.339.039a4.285,4.285,0,0,1-1.257-.77,4.721,4.721,0,0,1-.87-1.075c-.091-.155-.009-.239.068-.317s.157-.181.235-.271a1.086,1.086,0,0,0,.156-.26.282.282,0,0,0-.013-.272c-.039-.078-.352-.842-.483-1.153s-.26-.3-.352-.3a2.322,2.322,0,0,0-.26.027.886.886,0,0,0-.458.194,1.735,1.735,0,0,0-.547,1.3,3,3,0,0,0,.638,1.6,6.409,6.409,0,0,0,2.673,2.345c1.59.622,1.592.414,1.878.391a1.579,1.579,0,0,0,1.057-.737,1.292,1.292,0,0,0,.092-.737Z" transform="translate(-1.888 -1.836)" fill="#4a4e56" fill-rule="evenodd"/>
  </g>
</svg>
